<svg xmlns="http://www.w3.org/2000/svg" id="canvas" viewBox="215.888 144.495 947.384 226.181"><path d="M 222.44,268.17 C 223.72 267.58, 224.68 266.51, 225.85 264.15 C 227.03 261.79, 227.13 260.04, 228.32 256.39 C 229.51 252.74, 230.16 250.28, 231.80 245.90 C 233.44 241.53, 234.47 238.98, 236.53 234.52 C 238.58 230.06, 239.84 227.52, 242.08 223.62 C 244.32 219.71, 246.10 217.59, 247.71 214.99 C 249.31 212.39, 249.53 211.03, 250.11 210.63 C 250.68 210.22, 250.03 210.35, 250.59 212.98 C 251.15 215.61, 252.18 217.78, 252.90 223.77 C 253.62 229.76, 253.83 234.05, 254.19 242.95 C 254.55 251.84, 254.52 257.56, 254.70 268.25 C 254.88 278.94, 254.81 285.32, 255.07 296.40 C 255.33 307.49, 255.42 313.68, 255.99 323.67 C 256.56 333.67, 256.89 338.80, 257.93 346.37 C 258.98 353.94, 259.32 357.28, 261.20 361.54 C 263.09 365.79, 264.68 367.42, 267.36 367.65 C 270.05 367.88, 272.06 366.65, 274.65 362.70 C 277.23 358.76, 278.07 355.53, 280.30 347.93 C 282.54 340.32, 283.63 335.37, 285.82 324.68 C 288.02 313.98, 289.15 307.26, 291.28 294.46 C 293.40 281.66, 294.45 274.17, 296.44 260.67 C 298.42 247.17, 299.39 239.77, 301.20 226.95 C 303.01 214.13, 303.90 207.58, 305.47 196.57 C 307.04 185.57, 307.78 180.30, 309.06 171.94 C 310.33 163.57, 311.37 159.59, 311.85 154.75 C 312.33 149.92, 311.96 148.16, 311.44 147.76 C 310.92 147.37, 309.66 148.37, 309.23 152.77 C 308.80 157.17, 309.17 161.01, 309.28 169.76 C 309.40 178.51, 309.41 184.63, 309.81 196.53 C 310.21 208.44, 310.42 215.83, 311.28 229.28 C 312.14 242.74, 312.68 250.47, 314.11 263.82 C 315.54 277.16, 316.40 284.35, 318.43 296.00 C 320.46 307.66, 321.70 313.46, 324.28 322.09 C 326.86 330.72, 328.11 334.44, 331.33 339.17 C 334.54 343.90, 336.67 345.76, 340.35 345.76 C 344.02 345.76, 346.25 343.93, 349.71 339.17 C 353.16 334.42, 354.62 330.57, 357.62 321.99 C 360.62 313.41, 362.08 307.57, 364.72 296.27 C 367.37 284.96, 368.63 277.91, 370.84 265.48 C 373.04 253.04, 374.02 245.98, 375.75 234.09 C 377.48 222.20, 378.20 215.99, 379.48 206.02 C 380.77 196.06, 381.30 191.33, 382.19 184.24 C 383.09 177.16, 383.90 174.28, 383.96 170.59 C 384.02 166.90, 383.25 165.83, 382.49 165.80 C 381.74 165.77, 380.49 166.76, 380.19 170.46 C 379.88 174.15, 380.48 177.18, 380.97 184.29 C 381.47 191.39, 381.82 196.16, 382.68 205.98 C 383.53 215.81, 384.03 221.88, 385.26 233.41 C 386.48 244.94, 387.17 251.68, 388.79 263.63 C 390.40 275.59, 391.38 282.23, 393.32 293.20 C 395.27 304.17, 396.40 309.82, 398.51 318.49 C 400.61 327.16, 401.62 331.14, 403.85 336.54 C 406.08 341.94, 407.19 344.39, 409.67 345.48 C 412.14 346.57, 414.53 344.80, 416.23 341.99 C 417.92 339.18, 417.98 335.63, 418.16 331.41 C 418.33 327.19, 418.28 322.96, 417.10 320.88 C 415.92 318.81, 413.30 318.99, 412.26 321.04 C 411.22 323.10, 412.03 327.30, 411.88 331.15 C 411.72 335.00, 411.63 337.93, 411.48 340.31 C 411.34 342.69, 412.10 344.04, 411.14 343.05 C 410.18 342.06, 408.76 340.40, 406.69 335.37 C 404.63 330.34, 403.09 326.41, 400.82 317.90 C 398.55 309.39, 397.36 303.74, 395.35 292.83 C 393.35 281.92, 392.36 275.29, 390.79 263.37 C 389.21 251.44, 388.52 244.71, 387.46 233.19 C 386.39 221.68, 385.99 215.60, 385.45 205.79 C 384.90 195.97, 384.86 191.21, 384.73 184.12 C 384.61 177.04, 385.28 174.05, 384.83 170.36 C 384.38 166.67, 383.40 165.69, 382.49 165.67 C 381.57 165.65, 380.86 166.60, 380.26 170.26 C 379.66 173.92, 380.08 176.86, 379.49 183.96 C 378.91 191.06, 378.49 195.80, 377.35 205.77 C 376.22 215.74, 375.52 221.94, 373.82 233.81 C 372.13 245.68, 371.14 252.74, 368.87 265.12 C 366.60 277.51, 365.26 284.54, 362.48 295.72 C 359.70 306.91, 358.04 312.71, 354.95 321.02 C 351.86 329.33, 349.95 332.98, 347.02 337.27 C 344.09 341.56, 342.98 342.40, 340.31 342.47 C 337.64 342.53, 336.44 341.81, 333.66 337.60 C 330.89 333.40, 329.10 329.81, 326.42 321.43 C 323.75 313.04, 322.40 307.23, 320.29 295.67 C 318.18 284.11, 317.30 276.93, 315.88 263.63 C 314.45 250.33, 313.92 242.60, 313.18 229.17 C 312.44 215.74, 312.32 208.36, 312.15 196.48 C 311.99 184.60, 312.20 178.50, 312.36 169.77 C 312.52 161.04, 313.23 157.28, 312.95 152.83 C 312.68 148.39, 311.82 147.24, 310.97 147.54 C 310.11 147.83, 309.53 149.50, 308.68 154.31 C 307.82 159.13, 307.71 163.21, 306.69 171.61 C 305.66 180.01, 305.01 185.29, 303.56 196.31 C 302.11 207.33, 301.23 213.89, 299.45 226.71 C 297.68 239.53, 296.70 246.92, 294.68 260.41 C 292.65 273.89, 291.58 281.38, 289.33 294.13 C 287.08 306.88, 285.85 313.59, 283.42 324.16 C 281.00 334.72, 279.65 339.66, 277.21 346.96 C 274.77 354.25, 273.16 357.10, 271.23 360.65 C 269.31 364.20, 268.96 364.80, 267.59 364.72 C 266.22 364.63, 265.78 363.98, 264.39 360.23 C 262.99 356.48, 261.84 353.30, 260.62 345.96 C 259.40 338.62, 258.95 333.45, 258.28 323.53 C 257.62 313.61, 257.52 307.41, 257.29 296.35 C 257.06 285.29, 257.15 278.92, 257.14 268.23 C 257.13 257.53, 257.29 251.84, 257.25 242.88 C 257.21 233.92, 257.30 229.74, 256.96 223.42 C 256.61 217.10, 256.98 214.50, 255.51 211.28 C 254.05 208.06, 252.14 207.29, 249.64 207.32 C 247.13 207.36, 245.41 208.69, 242.99 211.45 C 240.58 214.22, 239.75 216.96, 237.56 221.15 C 235.37 225.34, 234.21 227.88, 232.04 232.40 C 229.86 236.93, 228.65 239.43, 226.68 243.78 C 224.71 248.12, 223.67 250.52, 222.18 254.13 C 220.70 257.74, 219.80 259.25, 219.25 261.85 C 218.70 264.45, 218.79 265.86, 219.43 267.13 C 220.06 268.39, 221.15 268.77, 222.44 268.17" style="stroke: black; fill: black;"/><path d="M 380.26,270.83 C 380.85 271.93, 381.52 272.89, 383.87 273.56 C 386.22 274.22, 387.95 274.14, 392.01 274.15 C 396.08 274.16, 398.79 274.03, 404.18 273.60 C 409.57 273.18, 412.89 272.94, 418.96 272.03 C 425.03 271.11, 428.44 270.50, 434.53 269.03 C 440.63 267.55, 443.84 266.63, 449.45 264.66 C 455.06 262.69, 457.84 261.55, 462.58 259.17 C 467.31 256.79, 469.49 255.42, 473.12 252.75 C 476.75 250.09, 478.37 248.73, 480.71 245.86 C 483.05 242.98, 484.00 241.35, 484.82 238.37 C 485.65 235.40, 485.53 233.65, 484.84 231.00 C 484.16 228.34, 483.36 226.85, 481.40 225.11 C 479.43 223.36, 477.81 222.49, 475.03 222.27 C 472.24 222.06, 470.15 222.23, 467.45 224.05 C 464.76 225.87, 463.53 227.59, 461.56 231.38 C 459.58 235.16, 458.78 237.49, 457.57 242.98 C 456.36 248.47, 455.89 251.81, 455.51 258.82 C 455.13 265.84, 455.15 270.08, 455.67 278.04 C 456.19 286.01, 456.73 290.61, 458.09 298.63 C 459.44 306.66, 460.43 311.03, 462.45 318.19 C 464.47 325.34, 465.75 328.91, 468.19 334.41 C 470.64 339.91, 471.89 342.36, 474.69 345.70 C 477.48 349.03, 479.08 350.39, 482.16 351.09 C 485.24 351.78, 487.61 351.36, 490.09 349.16 C 492.56 346.96, 493.47 344.62, 494.54 340.09 C 495.62 335.56, 495.70 332.42, 495.47 326.51 C 495.24 320.61, 494.82 316.83, 493.38 310.57 C 491.94 304.31, 490.83 300.65, 488.25 295.20 C 485.68 289.76, 483.94 287.07, 480.49 283.34 C 477.04 279.62, 474.85 278.20, 471.01 276.58 C 467.17 274.95, 464.73 274.60, 461.28 275.20 C 457.84 275.81, 455.78 277.10, 453.79 279.60 C 451.80 282.10, 450.94 284.40, 451.33 287.70 C 451.72 291.00, 452.89 293.24, 455.76 296.09 C 458.62 298.94, 460.94 300.27, 465.67 301.94 C 470.39 303.61, 473.42 304.24, 479.36 304.44 C 485.30 304.63, 488.82 304.37, 495.37 302.91 C 501.92 301.44, 505.56 300.16, 512.11 297.10 C 518.65 294.03, 522.12 291.94, 528.10 287.58 C 534.08 283.22, 537.08 280.48, 542.01 275.28 C 546.93 270.09, 549.21 267.02, 552.73 261.59 C 556.25 256.17, 557.65 253.20, 559.62 248.18 C 561.58 243.15, 562.25 240.62, 562.56 236.49 C 562.86 232.36, 562.64 230.20, 561.14 227.52 C 559.64 224.84, 557.86 223.64, 555.04 223.10 C 552.21 222.55, 549.89 222.74, 547.03 224.79 C 544.16 226.84, 542.93 228.94, 540.71 233.33 C 538.50 237.73, 537.48 240.52, 535.96 246.77 C 534.44 253.01, 533.76 256.88, 533.11 264.55 C 532.47 272.22, 532.33 276.81, 532.74 285.11 C 533.15 293.41, 533.67 298.11, 535.17 306.03 C 536.67 313.96, 537.80 318.13, 540.25 324.75 C 542.70 331.36, 544.22 334.50, 547.42 339.13 C 550.63 343.76, 552.47 345.74, 556.25 347.90 C 560.04 350.06, 562.53 350.60, 566.33 349.91 C 570.13 349.23, 572.30 347.84, 575.26 344.49 C 578.23 341.14, 579.49 338.47, 581.16 333.16 C 582.83 327.84, 583.40 324.29, 583.60 317.93 C 583.80 311.57, 583.57 307.66, 582.15 301.35 C 580.74 295.04, 579.51 291.52, 576.51 286.37 C 573.51 281.21, 571.35 278.79, 567.15 275.57 C 562.96 272.35, 560.17 271.27, 555.55 270.26 C 550.93 269.25, 548.18 269.53, 544.06 270.53 C 539.94 271.54, 537.57 272.66, 534.94 275.29 C 532.30 277.93, 531.07 280.24, 530.89 283.70 C 530.71 287.16, 531.52 289.73, 534.04 292.60 C 536.57 295.46, 538.90 296.70, 543.51 298.03 C 548.12 299.35, 551.14 299.64, 557.11 299.22 C 563.08 298.80, 566.66 298.09, 573.34 295.91 C 580.03 293.73, 583.84 291.99, 590.52 288.34 C 597.20 284.70, 600.81 282.27, 606.75 277.68 C 612.68 273.10, 615.63 270.33, 620.19 265.43 C 624.74 260.53, 626.75 257.79, 629.51 253.18 C 632.27 248.56, 633.42 246.25, 633.98 242.36 C 634.54 238.47, 634.10 236.31, 632.30 233.72 C 630.50 231.14, 628.36 229.76, 625.00 229.45 C 621.63 229.15, 619.26 229.93, 615.47 232.20 C 611.68 234.48, 609.63 236.30, 606.05 240.81 C 602.47 245.32, 600.49 248.29, 597.58 254.75 C 594.68 261.22, 593.20 265.29, 591.54 273.14 C 589.88 280.98, 589.27 285.75, 589.28 293.99 C 589.29 302.24, 589.74 306.97, 591.60 314.37 C 593.46 321.78, 594.98 325.60, 598.59 331.02 C 602.21 336.44, 604.70 338.85, 609.68 341.48 C 614.65 344.11, 617.88 344.72, 623.46 344.17 C 629.04 343.62, 632.31 342.31, 637.58 338.73 C 642.84 335.14, 645.59 332.30, 649.78 326.24 C 653.97 320.18, 655.98 316.12, 658.52 308.44 C 661.06 300.76, 661.94 295.99, 662.48 287.84 C 663.01 279.68, 662.69 275.02, 661.18 267.66 C 659.66 260.29, 658.18 256.53, 654.92 251.02 C 651.66 245.51, 649.23 243.17, 644.88 240.11 C 640.53 237.05, 637.70 236.33, 633.17 235.72 C 628.64 235.11, 625.97 235.64, 622.23 237.08 C 618.49 238.52, 616.31 239.99, 614.46 242.92 C 612.61 245.85, 612.16 248.47, 612.98 251.72 C 613.80 254.97, 615.24 257.15, 618.54 259.18 C 621.85 261.22, 624.49 261.73, 629.53 261.88 C 634.56 262.02, 637.67 261.53, 643.71 259.92 C 649.75 258.32, 653.25 256.87, 659.73 253.84 C 666.21 250.81, 669.84 248.64, 676.13 244.78 C 682.41 240.92, 685.70 238.39, 691.13 234.54 C 696.57 230.69, 699.30 228.46, 703.28 225.52 C 707.27 222.58, 709.35 221.31, 711.06 219.85 C 712.77 218.38, 712.05 217.20, 711.81 218.17 C 711.57 219.15, 710.94 220.44, 709.87 224.72 C 708.79 229.00, 708.07 232.46, 706.43 239.57 C 704.78 246.68, 703.52 251.55, 701.65 260.27 C 699.77 268.99, 698.60 274.41, 697.05 283.18 C 695.50 291.96, 694.75 296.89, 693.91 304.15 C 693.07 311.41, 692.48 314.91, 692.87 319.47 C 693.26 324.04, 693.98 325.92, 695.86 326.97 C 697.74 328.03, 699.91 327.66, 702.27 324.76 C 704.64 321.86, 705.37 318.77, 707.68 312.49 C 709.99 306.20, 711.28 301.70, 713.82 293.32 C 716.35 284.94, 717.74 279.55, 720.37 270.58 C 722.99 261.61, 724.42 256.45, 726.93 248.47 C 729.44 240.50, 730.97 236.18, 732.92 230.70 C 734.87 225.23, 736.20 223.10, 736.67 221.10 C 737.14 219.10, 735.68 218.85, 735.27 220.70 C 734.86 222.55, 734.91 224.89, 734.62 230.35 C 734.34 235.81, 734.12 240.19, 733.83 248.01 C 733.54 255.83, 733.24 261.13, 733.17 269.44 C 733.10 277.74, 732.97 282.58, 733.48 289.55 C 734.00 296.51, 734.03 299.97, 735.75 304.25 C 737.46 308.54, 739.05 310.48, 742.04 310.96 C 745.04 311.44, 747.23 310.14, 750.71 306.67 C 754.19 303.20, 755.84 299.93, 759.44 293.60 C 763.03 287.26, 765.10 282.68, 768.70 275.02 C 772.30 267.35, 774.24 262.49, 777.44 255.28 C 780.64 248.07, 782.38 244.15, 784.70 238.97 C 787.03 233.78, 788.50 231.56, 789.05 229.37 C 789.59 227.18, 788.09 226.54, 787.43 228.00 C 786.78 229.47, 786.41 231.62, 785.77 236.69 C 785.13 241.75, 784.77 245.78, 784.23 253.32 C 783.69 260.85, 783.30 265.98, 783.06 274.36 C 782.81 282.75, 782.58 287.66, 783.00 295.22 C 783.42 302.79, 783.68 306.65, 785.15 312.20 C 786.61 317.76, 787.43 320.43, 790.32 323.01 C 793.21 325.60, 795.75 326.20, 799.57 325.13 C 803.40 324.06, 805.45 322.15, 809.44 317.65 C 813.43 313.16, 815.49 309.84, 819.53 302.65 C 823.56 295.46, 825.73 290.70, 829.60 281.70 C 833.47 272.71, 835.46 267.24, 838.89 257.69 C 842.33 248.14, 843.99 242.75, 846.78 233.94 C 849.58 225.14, 850.80 220.61, 852.89 213.64 C 854.98 206.67, 856.03 203.62, 857.24 199.09 C 858.45 194.56, 859.08 192.72, 858.92 190.98 C 858.77 189.25, 857.14 188.90, 856.45 190.42 C 855.77 191.94, 855.64 193.79, 855.49 198.60 C 855.34 203.41, 855.58 206.98, 855.69 214.48 C 855.80 221.98, 855.83 226.92, 856.04 236.13 C 856.24 245.33, 856.29 250.90, 856.71 260.49 C 857.13 270.08, 857.39 275.43, 858.13 284.09 C 858.88 292.74, 859.35 297.11, 860.42 303.76 C 861.49 310.40, 861.85 313.33, 863.49 317.30 C 865.12 321.27, 866.29 322.91, 868.59 323.60 C 870.89 324.29, 873.03 322.98, 874.99 320.74 C 876.94 318.50, 877.87 315.74, 878.38 312.39 C 878.89 309.03, 878.61 305.74, 877.53 303.96 C 876.45 302.18, 874.38 302.09, 872.97 303.49 C 871.57 304.90, 871.10 308.04, 870.49 310.99 C 869.88 313.93, 870.09 316.21, 869.93 318.21 C 869.76 320.20, 870.20 321.43, 869.66 320.96 C 869.12 320.50, 868.47 319.43, 867.23 315.87 C 865.99 312.32, 864.76 309.61, 863.47 303.20 C 862.18 296.80, 861.61 292.41, 860.78 283.84 C 859.94 275.28, 859.67 269.93, 859.30 260.38 C 858.94 250.83, 858.90 245.27, 858.95 236.10 C 858.99 226.93, 859.24 222.01, 859.54 214.53 C 859.84 207.05, 860.41 203.57, 860.45 198.70 C 860.49 193.83, 860.64 191.94, 859.74 190.20 C 858.83 188.46, 857.17 188.41, 855.92 189.99 C 854.67 191.58, 854.65 193.54, 853.49 198.12 C 852.33 202.69, 851.95 205.86, 850.13 212.87 C 848.32 219.89, 847.12 224.41, 844.42 233.21 C 841.72 242.00, 840.07 247.38, 836.62 256.87 C 833.17 266.35, 831.14 271.80, 827.17 280.64 C 823.20 289.47, 820.88 294.16, 816.76 301.04 C 812.64 307.93, 810.26 311.05, 806.57 315.06 C 802.87 319.06, 800.98 320.08, 798.29 321.08 C 795.59 322.08, 795.05 322.01, 793.10 320.05 C 791.16 318.09, 789.96 316.28, 788.57 311.28 C 787.18 306.27, 786.62 302.40, 786.16 295.04 C 785.70 287.68, 785.89 282.76, 786.29 274.49 C 786.69 266.22, 787.35 261.14, 788.16 253.67 C 788.97 246.21, 789.91 242.35, 790.36 237.17 C 790.80 231.99, 791.32 229.71, 790.39 227.77 C 789.47 225.83, 787.57 225.53, 785.74 227.47 C 783.91 229.41, 783.49 232.15, 781.25 237.46 C 779.01 242.77, 777.64 246.79, 774.54 254.01 C 771.43 261.24, 769.41 266.07, 765.74 273.61 C 762.07 281.14, 759.81 285.66, 756.20 291.71 C 752.59 297.75, 750.41 300.67, 747.68 303.83 C 744.95 306.98, 744.20 307.64, 742.54 307.47 C 740.87 307.29, 740.50 306.59, 739.36 302.95 C 738.22 299.32, 737.43 295.97, 736.85 289.28 C 736.26 282.58, 736.27 277.70, 736.44 269.48 C 736.61 261.27, 737.15 256.00, 737.67 248.21 C 738.19 240.42, 738.86 236.16, 739.05 230.54 C 739.25 224.93, 739.71 222.39, 738.64 220.16 C 737.58 217.92, 735.54 217.50, 733.74 219.38 C 731.93 221.26, 731.52 223.90, 729.61 229.56 C 727.71 235.21, 726.60 239.60, 724.22 247.65 C 721.84 255.69, 720.41 260.86, 717.71 269.80 C 715.02 278.73, 713.49 284.09, 710.73 292.34 C 707.98 300.59, 706.41 305.05, 703.95 311.04 C 701.49 317.02, 699.79 319.44, 698.44 322.27 C 697.08 325.10, 697.54 325.79, 697.19 325.19 C 696.84 324.59, 696.74 323.43, 696.70 319.28 C 696.66 315.14, 696.38 311.59, 697.01 304.47 C 697.64 297.35, 698.32 292.38, 699.85 283.67 C 701.38 274.97, 702.59 269.58, 704.65 260.96 C 706.72 252.33, 708.19 247.57, 710.17 240.53 C 712.14 233.49, 713.61 230.39, 714.51 225.75 C 715.40 221.11, 715.76 219.32, 714.63 217.33 C 713.50 215.34, 711.64 214.82, 708.86 215.79 C 706.07 216.77, 704.67 219.00, 700.72 222.19 C 696.76 225.38, 694.35 227.78, 689.09 231.73 C 683.82 235.68, 680.55 238.17, 674.39 241.95 C 668.22 245.73, 664.60 247.83, 658.26 250.62 C 651.93 253.41, 648.43 254.66, 642.74 255.91 C 637.05 257.15, 634.03 257.21, 629.81 256.83 C 625.60 256.45, 623.90 255.32, 621.66 254.01 C 619.42 252.70, 619.03 251.82, 618.62 250.28 C 618.22 248.74, 618.49 247.95, 619.63 246.32 C 620.78 244.68, 621.72 243.34, 624.34 242.12 C 626.96 240.90, 629.03 239.97, 632.72 240.19 C 636.41 240.41, 638.89 240.72, 642.77 243.23 C 646.65 245.73, 649.02 247.70, 652.12 252.71 C 655.21 257.72, 656.76 261.28, 658.25 268.27 C 659.74 275.26, 660.10 279.80, 659.58 287.65 C 659.07 295.49, 658.16 300.14, 655.67 307.49 C 653.18 314.83, 651.14 318.72, 647.13 324.39 C 643.12 330.06, 640.42 332.59, 635.61 335.83 C 630.81 339.08, 627.97 340.09, 623.10 340.61 C 618.23 341.13, 615.64 340.71, 611.27 338.44 C 606.90 336.17, 604.59 334.21, 601.23 329.25 C 597.87 324.29, 596.28 320.69, 594.48 313.64 C 592.68 306.59, 592.19 301.96, 592.21 294.00 C 592.23 286.03, 592.85 281.35, 594.58 273.81 C 596.31 266.27, 597.87 262.31, 600.84 256.29 C 603.82 250.26, 605.98 247.55, 609.46 243.69 C 612.94 239.84, 615.17 238.68, 618.23 237.02 C 621.30 235.36, 622.76 235.49, 624.78 235.39 C 626.80 235.28, 627.46 235.23, 628.35 236.49 C 629.24 237.75, 629.69 238.71, 629.24 241.67 C 628.80 244.62, 628.43 246.95, 626.13 251.25 C 623.82 255.55, 621.97 258.38, 617.71 263.17 C 613.45 267.96, 610.56 270.73, 604.82 275.19 C 599.07 279.66, 595.50 282.04, 588.99 285.50 C 582.48 288.95, 578.70 290.59, 572.28 292.48 C 565.86 294.37, 562.35 294.84, 556.91 294.96 C 551.46 295.08, 548.73 294.36, 545.06 293.09 C 541.38 291.82, 540.16 290.41, 538.53 288.60 C 536.89 286.80, 536.73 285.86, 536.86 284.05 C 536.99 282.24, 537.45 281.24, 539.17 279.56 C 540.89 277.87, 542.35 276.58, 545.45 275.62 C 548.55 274.65, 550.83 274.08, 554.68 274.72 C 558.54 275.36, 561.01 276.10, 564.72 278.81 C 568.43 281.53, 570.49 283.62, 573.23 288.29 C 575.98 292.96, 577.18 296.27, 578.44 302.17 C 579.71 308.06, 579.86 311.84, 579.54 317.76 C 579.23 323.68, 578.46 327.06, 576.87 331.76 C 575.28 336.47, 573.87 338.60, 571.58 341.28 C 569.29 343.97, 568.06 344.61, 565.41 345.19 C 562.76 345.77, 561.34 345.81, 558.33 344.18 C 555.32 342.55, 553.38 341.15, 550.35 337.04 C 547.31 332.93, 545.62 329.95, 543.16 323.64 C 540.69 317.33, 539.52 313.22, 538.03 305.49 C 536.54 297.76, 536.03 293.10, 535.71 284.98 C 535.39 276.86, 535.59 272.30, 536.42 264.87 C 537.26 257.44, 538.10 253.64, 539.88 247.84 C 541.65 242.04, 543.07 239.47, 545.29 235.88 C 547.52 232.29, 549.19 231.50, 551.01 229.90 C 552.83 228.30, 553.29 227.89, 554.38 227.88 C 555.47 227.87, 555.78 228.19, 556.44 229.86 C 557.11 231.53, 557.81 232.83, 557.71 236.23 C 557.60 239.62, 557.49 242.12, 555.92 246.83 C 554.35 251.54, 553.09 254.51, 549.84 259.76 C 546.60 265.02, 544.41 268.05, 539.69 273.10 C 534.97 278.16, 532.04 280.83, 526.25 285.03 C 520.46 289.23, 517.05 291.24, 510.73 294.10 C 504.40 296.96, 500.85 298.12, 494.62 299.33 C 488.39 300.55, 485.01 300.62, 479.60 300.18 C 474.19 299.74, 471.43 298.81, 467.55 297.12 C 463.67 295.42, 462.19 293.78, 460.20 291.71 C 458.21 289.63, 457.97 288.42, 457.58 286.73 C 457.20 285.04, 457.33 284.37, 458.29 283.26 C 459.24 282.14, 460.17 281.56, 462.35 281.15 C 464.54 280.74, 466.21 280.18, 469.22 281.21 C 472.23 282.23, 474.31 283.14, 477.40 286.29 C 480.49 289.43, 482.27 291.88, 484.66 296.91 C 487.06 301.94, 488.15 305.51, 489.38 311.45 C 490.61 317.39, 490.84 321.13, 490.83 326.60 C 490.82 332.08, 490.24 335.08, 489.33 338.83 C 488.41 342.59, 487.45 343.84, 486.25 345.40 C 485.04 346.96, 484.93 347.13, 483.28 346.63 C 481.63 346.13, 480.37 345.63, 477.99 342.88 C 475.61 340.14, 473.89 338.03, 471.37 332.92 C 468.85 327.81, 467.47 324.29, 465.39 317.33 C 463.32 310.38, 462.33 306.04, 461.01 298.14 C 459.69 290.25, 459.19 285.68, 458.81 277.87 C 458.44 270.06, 458.52 265.84, 459.15 259.09 C 459.79 252.35, 460.48 249.07, 461.99 244.14 C 463.51 239.21, 464.81 237.24, 466.72 234.42 C 468.64 231.60, 469.96 231.18, 471.56 230.06 C 473.17 228.94, 473.62 228.86, 474.74 228.81 C 475.86 228.77, 476.36 229.11, 477.17 229.84 C 477.99 230.58, 478.51 231.11, 478.82 232.49 C 479.13 233.86, 479.24 234.73, 478.73 236.73 C 478.21 238.73, 477.94 240.01, 476.24 242.48 C 474.54 244.95, 473.35 246.45, 470.23 249.07 C 467.12 251.68, 465.09 253.13, 460.68 255.53 C 456.26 257.93, 453.57 259.11, 448.17 261.07 C 442.76 263.03, 439.61 263.95, 433.66 265.32 C 427.71 266.68, 424.36 267.25, 418.43 267.90 C 412.49 268.55, 409.23 268.60, 404.00 268.55 C 398.77 268.51, 396.13 267.99, 392.28 267.68 C 388.42 267.37, 386.99 266.93, 384.72 267.00 C 382.44 267.06, 381.79 267.26, 380.90 268.03 C 380.01 268.79, 379.66 269.72, 380.26 270.83" style="stroke: black; fill: black;"/><path d="M 836.45,266.88 C 837.26 267.82, 838.01 268.66, 840.52 268.80 C 843.04 268.95, 844.81 268.43, 849.03 267.62 C 853.26 266.81, 856.03 266.15, 861.65 264.75 C 867.26 263.36, 870.75 262.42, 877.12 260.64 C 883.48 258.85, 887.07 257.77, 893.49 255.83 C 899.91 253.89, 903.29 252.76, 909.21 250.95 C 915.12 249.15, 918.07 248.22, 923.07 246.81 C 928.07 245.40, 930.71 244.98, 934.20 243.91 C 937.68 242.85, 938.72 242.38, 940.49 241.49 C 942.26 240.60, 942.61 240.20, 943.03 239.48 C 943.46 238.75, 943.36 238.28, 942.61 237.87 C 941.86 237.45, 941.29 237.19, 939.29 237.40 C 937.30 237.61, 936.14 237.83, 932.65 238.92 C 929.16 240.02, 926.74 241.16, 921.83 242.88 C 916.92 244.59, 913.99 245.59, 908.12 247.50 C 902.25 249.41, 898.87 250.54, 892.47 252.42 C 886.08 254.30, 882.49 255.35, 876.14 256.90 C 869.78 258.44, 866.28 259.20, 860.69 260.14 C 855.09 261.08, 852.27 261.16, 848.14 261.58 C 844.01 262.00, 842.38 261.74, 840.05 262.24 C 837.71 262.74, 837.20 263.16, 836.48 264.09 C 835.76 265.01, 835.64 265.93, 836.45 266.88" style="stroke: black; fill: black;"/><path d="M 949.60,234.52 C 950.59 235.15, 951.53 235.20, 952.65 235.09 C 953.77 234.99, 954.33 234.29, 955.20 233.99 C 956.06 233.69, 956.13 233.20, 956.97 233.59 C 957.81 233.98, 958.17 234.34, 959.40 235.93 C 960.63 237.52, 961.53 238.61, 963.11 241.52 C 964.69 244.43, 965.62 246.43, 967.29 250.49 C 968.97 254.55, 969.78 257.05, 971.46 261.83 C 973.15 266.61, 973.98 269.34, 975.73 274.41 C 977.48 279.49, 978.37 282.27, 980.23 287.20 C 982.09 292.12, 983.02 294.68, 985.03 299.03 C 987.03 303.39, 988.02 305.46, 990.26 308.97 C 992.49 312.48, 993.53 314.41, 996.19 316.56 C 998.85 318.70, 1000.79 319.62, 1003.56 319.69 C 1006.33 319.77, 1008.92 318.12, 1010.04 316.93 C 1011.17 315.74, 1010.36 314.30, 1009.18 313.74 C 1007.99 313.17, 1005.93 314.48, 1004.11 314.10 C 1002.29 313.72, 1001.99 313.45, 1000.08 311.83 C 998.17 310.22, 996.76 308.98, 994.59 306.02 C 992.41 303.06, 991.25 301.10, 989.19 297.03 C 987.14 292.95, 986.17 290.44, 984.32 285.64 C 982.46 280.83, 981.58 278.06, 979.92 273.00 C 978.26 267.94, 977.50 265.22, 976.04 260.34 C 974.57 255.46, 973.93 252.96, 972.61 248.60 C 971.28 244.25, 970.84 242.09, 969.43 238.57 C 968.01 235.06, 967.42 233.37, 965.52 231.04 C 963.63 228.71, 962.31 227.98, 959.94 226.93 C 957.57 225.89, 955.91 225.54, 953.68 225.82 C 951.44 226.09, 949.97 227.09, 948.77 228.31 C 947.57 229.52, 947.52 230.67, 947.68 231.91 C 947.85 233.16, 948.60 233.88, 949.60 234.52" style="stroke: black; fill: black;"/><path d="M 964.65,259.47 C 965.27 260.33, 965.61 261.05, 967.62 261.23 C 969.64 261.42, 971.08 261.25, 974.73 260.42 C 978.38 259.59, 980.75 258.62, 985.87 257.07 C 991.00 255.52, 994.41 254.54, 1000.36 252.68 C 1006.32 250.82, 1009.77 249.68, 1015.65 247.76 C 1021.52 245.85, 1024.75 244.77, 1029.74 243.09 C 1034.73 241.41, 1037.21 240.52, 1040.60 239.37 C 1043.98 238.21, 1045.53 238.19, 1046.67 237.33 C 1047.81 236.46, 1047.75 235.48, 1046.30 235.03 C 1044.84 234.58, 1042.98 234.27, 1039.39 235.08 C 1035.80 235.89, 1033.34 237.28, 1028.34 239.07 C 1023.35 240.85, 1020.25 242.10, 1014.42 244.00 C 1008.59 245.91, 1005.14 247.01, 999.18 248.60 C 993.22 250.20, 989.79 251.00, 984.62 251.98 C 979.46 252.96, 976.92 252.90, 973.36 253.50 C 969.79 254.11, 968.55 254.31, 966.79 255.01 C 965.03 255.70, 964.98 256.08, 964.56 256.97 C 964.13 257.86, 964.04 258.62, 964.65 259.47" style="stroke: black; fill: black;"/><path d="M 1051.00,263.53 C 1049.94 264.82, 1049.50 266.72, 1048.88 270.45 C 1048.27 274.18, 1048.20 277.03, 1047.93 282.19 C 1047.66 287.35, 1047.46 290.82, 1047.53 296.25 C 1047.60 301.69, 1047.69 304.67, 1048.27 309.35 C 1048.85 314.02, 1049.36 317.66, 1050.44 319.62 C 1051.52 321.57, 1053.20 321.26, 1053.65 319.13 C 1054.11 316.99, 1052.97 313.52, 1052.72 308.95 C 1052.47 304.37, 1052.33 301.54, 1052.41 296.26 C 1052.48 290.97, 1052.71 287.56, 1053.10 282.52 C 1053.48 277.48, 1054.12 274.77, 1054.34 271.05 C 1054.55 267.34, 1054.84 265.47, 1054.17 263.97 C 1053.50 262.46, 1052.05 262.23, 1051.00 263.53" style="stroke: black; fill: black;"/><path d="M 1116.39,269.55 C 1117.85 268.94, 1119.27 267.62, 1120.56 265.13 C 1121.84 262.65, 1122.27 260.66, 1122.82 257.12 C 1123.37 253.57, 1123.73 251.14, 1123.29 247.42 C 1122.86 243.69, 1122.41 241.59, 1120.64 238.49 C 1118.88 235.38, 1117.53 233.66, 1114.47 231.89 C 1111.41 230.12, 1109.23 229.43, 1105.34 229.64 C 1101.45 229.85, 1099.15 230.56, 1095.02 232.94 C 1090.88 235.33, 1088.63 237.11, 1084.66 241.57 C 1080.68 246.02, 1078.50 248.97, 1075.16 255.22 C 1071.82 261.47, 1070.08 265.41, 1067.96 272.83 C 1065.84 280.25, 1064.97 284.66, 1064.55 292.33 C 1064.13 299.99, 1064.30 304.27, 1065.85 311.17 C 1067.40 318.07, 1068.71 321.61, 1072.31 326.83 C 1075.91 332.05, 1078.49 334.30, 1083.84 337.26 C 1089.19 340.22, 1092.64 340.97, 1099.07 341.64 C 1105.49 342.31, 1109.29 341.81, 1115.96 340.62 C 1122.64 339.43, 1126.34 338.04, 1132.43 335.69 C 1138.52 333.33, 1141.73 331.45, 1146.43 328.85 C 1151.13 326.25, 1153.19 324.90, 1155.92 322.70 C 1158.64 320.50, 1159.52 319.15, 1160.07 317.83 C 1160.62 316.52, 1160.01 315.87, 1158.66 316.13 C 1157.31 316.39, 1156.19 317.30, 1153.33 319.12 C 1150.48 320.95, 1148.82 322.62, 1144.37 325.26 C 1139.92 327.89, 1136.89 329.91, 1131.08 332.30 C 1125.28 334.69, 1121.67 336.02, 1115.34 337.21 C 1109.01 338.39, 1105.39 338.81, 1099.41 338.23 C 1093.43 337.66, 1090.34 336.97, 1085.45 334.32 C 1080.56 331.67, 1078.29 329.76, 1074.97 324.99 C 1071.66 320.22, 1070.35 316.98, 1068.88 310.49 C 1067.41 303.99, 1067.18 299.85, 1067.61 292.50 C 1068.04 285.15, 1068.89 280.84, 1071.02 273.72 C 1073.15 266.61, 1074.93 262.80, 1078.28 256.94 C 1081.62 251.08, 1083.90 248.34, 1087.74 244.45 C 1091.57 240.55, 1093.89 239.20, 1097.44 237.45 C 1101.00 235.70, 1102.80 235.68, 1105.51 235.70 C 1108.22 235.72, 1109.20 236.34, 1111.00 237.55 C 1112.80 238.75, 1113.51 239.64, 1114.50 241.74 C 1115.49 243.84, 1115.82 245.22, 1115.96 248.05 C 1116.09 250.88, 1115.65 252.95, 1115.16 255.89 C 1114.67 258.83, 1113.87 260.30, 1113.50 262.76 C 1113.12 265.21, 1112.71 266.80, 1113.28 268.16 C 1113.86 269.52, 1114.94 270.16, 1116.39 269.55" style="stroke: black; fill: black;"/></svg>